<?xml version="1.0" encoding="utf-8"?>
<svg width="32px" height="32px" viewbox="0 0 32 32" version="1.1" xmlns:xlink="http://www.w3.org/1999/xlink" xmlns="http://www.w3.org/2000/svg">
  <defs>
    <path d="M0 0L32 0L32 32L0 32L0 0Z" id="path_1" />
    <clipPath id="mask_1">
      <use xlink:href="#path_1" />
    </clipPath>
  </defs>
  <g id="toggleTheme">
    <path d="M0 0L32 0L32 32L0 32L0 0Z" id="Background" fill="none" fill-rule="evenodd" stroke="none" />
    <g clip-path="url(#mask_1)">
      <path d="M2.04659 14.8567C2.68825 15.6407 4.32019 18.5451 4.66665 20L14 20C14.3465 18.5462 15.9765 15.6419 16.6182 14.859C17.7175 13.5145 18.4066 11.8931 18.6063 10.1817C18.806 8.4702 18.5081 6.73827 17.7469 5.18547C16.9858 3.63261 15.7923 2.32199 14.3041 1.40458C12.8158 0.487167 11.0932 0.000273546 9.33479 1.58946e-07C7.57639 -0.000273228 5.85372 0.486073 4.36512 1.40302C2.87659 2.31997 1.68265 3.63021 0.921054 5.1828C0.159388 6.7354 -0.139099 8.4672 0.0600541 10.1787C0.259187 11.8903 0.947787 13.5119 2.04659 14.8567L2.04659 14.8567ZM9.99999 5.33333L5.99999 11.3333L8.66666 11.3333L8.66666 15.3333L12.6667 9.33333L9.99999 9.33333L9.99999 5.33333L9.99999 5.33333Z" transform="translate(6.6666718 2.6666565)" id="Shape" fill="#333333" fill-rule="evenodd" stroke="none" />
      <path d="M0 0.666667C0 0.298467 0.298467 0 0.666667 0L8.66667 0C9.03487 0 9.33333 0.298467 9.33333 0.666667C9.33333 1.03487 9.03487 1.33333 8.66667 1.33333L0.666667 1.33333C0.298467 1.33333 0 1.03487 0 0.666667L0 0.666667Z" transform="translate(11.333328 24)" id="Shape" fill="#333333" fill-rule="evenodd" stroke="none" />
      <path d="M9.33333 0L0 0L0 1.33333C0 2.06973 0.596933 2.66667 1.33333 2.66667L8 2.66667C8.7364 2.66667 9.33333 2.06973 9.33333 1.33333L9.33333 0L9.33333 0Z" transform="translate(11.333328 26.666687)" id="Shape" fill="#333333" fill-rule="evenodd" stroke="none" />
    </g>
  </g>
</svg>